<?xml version="1.0" encoding="UTF-8"?>
<svg width="375px" height="169px" viewBox="0 0 375 169" version="1.1" xmlns="http://www.w3.org/2000/svg" xmlns:xlink="http://www.w3.org/1999/xlink">
    <!-- Generator: Sketch 45.2 (43514) - http://www.bohemiancoding.com/sketch -->
    <title>bottom_bg</title>
    <desc>Created with Sketch.</desc>
    <defs>
        <rect id="path-1" x="0" y="0" width="375" height="169"></rect>
    </defs>
    <g id="Widget-InfoView" stroke="none" stroke-width="1" fill="none" fill-rule="evenodd">
        <g id="Template-Info-View-Copy-16" transform="translate(0.000000, -498.000000)">
            <g id="bottom_bg" transform="translate(0.000000, 498.000000)">
                <mask id="mask-2" fill="white">
                    <use xlink:href="#path-1"></use>
                </mask>
                <use id="Mask" fill="#00C8E6" xlink:href="#path-1"></use>
                <g id="Group-3" mask="url(#mask-2)" fill="#FFFFFF">
                    <g transform="translate(-18.000000, 13.000000)">
                        <path d="M55.6940953,88.0087766 L95.7516181,110.638508 L95.7516181,110.638508 C98.2006242,112.022028 99.7150465,114.616948 99.7150465,117.429732 L99.7150465,162.397797 L99.7150465,162.397797 C99.7150465,165.210581 98.2006242,167.805501 95.7516181,169.189021 L55.6940953,191.818752 L55.6940953,191.818752 C53.3132104,193.163788 50.4018361,193.163788 48.0209511,191.818752 L7.96342833,169.189021 L7.96342833,169.189021 C5.51442232,167.805501 4,165.210581 4,162.397797 L4,117.429732 L4,117.429732 C4,114.616948 5.51442232,112.022028 7.96342833,110.638508 L48.0209511,88.0087766 L48.0209511,88.0087766 C50.4018361,86.6637411 53.3132104,86.6637411 55.6940953,88.0087766 Z" id="Mask-Copy-2" opacity="0.400000006"></path>
                        <path d="M392.853405,113.008777 L416.070238,126.124682 L416.070238,126.124682 C418.519244,127.508202 420.033666,130.103122 420.033666,132.915906 L420.033666,158.856319 L420.033666,158.856319 C420.033666,161.669103 418.519244,164.264023 416.070238,165.647543 L392.853405,178.763448 L392.853405,178.763448 C390.47252,180.108484 387.561146,180.108484 385.180261,178.763448 L361.963428,165.647543 L361.963428,165.647543 C359.514422,164.264023 358,161.669103 358,158.856319 L358,132.915906 L358,132.915906 C358,130.103122 359.514422,127.508202 361.963428,126.124682 L385.180261,113.008777 L385.180261,113.008777 C387.561146,111.663741 390.47252,111.663741 392.853405,113.008777 Z" id="Mask-Copy-4" opacity="0.400000006"></path>
                        <path d="M259.267699,121.365435 L325.898826,159.007416 L325.898826,159.007416 C328.347832,160.390935 329.862254,162.985856 329.862254,165.79864 L329.862254,240.791204 L329.862254,240.791204 C329.862254,243.603988 328.347832,246.198908 325.898826,247.582428 L259.267699,285.224409 L259.267699,285.224409 C256.886814,286.569444 253.97544,286.569444 251.594555,285.224409 L184.963428,247.582428 L184.963428,247.582428 C182.514422,246.198908 181,243.603988 181,240.791204 L181,165.79864 L181,165.79864 C181,162.985856 182.514422,160.390935 184.963428,159.007416 L251.594555,121.365435 L251.594555,121.365435 C253.97544,120.020399 256.886814,120.020399 259.267699,121.365435 Z" id="Mask-Copy-3" opacity="0.400000006"></path>
                        <path d="M311.582684,75.9463932 L329.197895,85.89777 L329.197895,85.89777 C330.453795,86.607267 331.230422,87.9379953 331.230422,89.3804487 L331.230422,109.133767 L331.230422,109.133767 C331.230422,110.57622 330.453795,111.906949 329.197895,112.616446 L311.582684,122.567822 L311.582684,122.567822 C310.361717,123.257584 308.868705,123.257584 307.647738,122.567822 L290.032527,112.616446 L290.032527,112.616446 C288.776627,111.906949 288,110.57622 288,109.133767 L288,89.3804487 L288,89.3804487 C288,87.9379953 288.776627,86.607267 290.032527,85.89777 L307.647738,75.9463932 L307.647738,75.9463932 C308.868705,75.2566315 310.361717,75.2566315 311.582684,75.9463932 Z" id="Mask-Copy-14" opacity="0.400000006"></path>
                        <path d="M201.182095,85.9463932 L213.396718,92.8468108 L213.396718,92.8468108 C214.652619,93.5563078 215.429245,94.8870361 215.429245,96.3294895 L215.429245,109.980889 L215.429245,109.980889 C215.429245,111.423343 214.652619,112.754071 213.396718,113.463568 L201.182095,120.363986 L201.182095,120.363986 C199.961129,121.053747 198.468117,121.053747 197.24715,120.363986 L185.032527,113.463568 L185.032527,113.463568 C183.776627,112.754071 183,111.423343 183,109.980889 L183,96.3294895 L183,96.3294895 C183,94.8870361 183.776627,93.5563078 185.032527,92.8468108 L197.24715,85.9463932 L197.24715,85.9463932 C198.468117,85.2566315 199.961129,85.2566315 201.182095,85.9463932 Z" id="Mask-Copy-20" opacity="0.400000006"></path>
                        <path d="M156.859921,122.921042 L177.59992,134.800721 L177.59992,134.800721 C179.70278,136.005219 181,138.243208 181,140.666601 L181,164.333399 L181,164.333399 C181,166.756792 179.70278,168.994781 177.59992,170.199279 L156.859921,182.078958 L156.859921,182.078958 C154.778599,183.27112 152.221401,183.27112 150.140079,182.078958 L129.40008,170.199279 L129.40008,170.199279 C127.29722,168.994781 126,166.756792 126,164.333399 L126,140.666601 L126,140.666601 C126,138.243208 127.29722,136.005219 129.40008,134.800721 L150.140079,122.921042 L150.140079,122.921042 C152.221401,121.72888 154.778599,121.72888 156.859921,122.921042 Z" id="Mask-Copy-16" opacity="0.400000006"></path>
                        <path d="M380.551787,69.943606 L390.351787,75.37765 L390.351787,75.37765 C391.368947,75.9416589 392,77.0131486 392,78.1762131 L392,88.8237869 L392,88.8237869 C392,89.9868514 391.368947,91.0583411 390.351787,91.62235 L380.551787,97.056394 L380.551787,97.056394 C379.586495,97.591643 378.413505,97.591643 377.448213,97.056394 L367.648213,91.62235 L367.648213,91.62235 C366.631053,91.0583411 366,89.9868514 366,88.8237869 L366,78.1762131 L366,78.1762131 C366,77.0131486 366.631053,75.9416589 367.648213,75.37765 L377.448213,69.943606 L377.448213,69.943606 C378.413505,69.408357 379.586495,69.408357 380.551787,69.943606 Z" id="Mask-Copy-26" opacity="0.400000006"></path>
                        <path d="M79.1052242,60.6911402 L83.331591,63.0787453 L83.331591,63.0787453 C84.1479263,63.5399184 84.6527338,64.4048918 84.6527338,65.3424866 L84.6527338,70.0205637 L84.6527338,70.0205637 C84.6527338,70.9581585 84.1479263,71.823132 83.331591,72.284305 L79.1052242,74.6719101 L79.1052242,74.6719101 C78.3115959,75.1202553 77.3411378,75.1202553 76.5475095,74.6719101 L72.3211428,72.284305 L72.3211428,72.284305 C71.5048074,71.823132 71,70.9581585 71,70.0205637 L71,65.3424866 L71,65.3424866 C71,64.4048918 71.5048074,63.5399184 72.3211428,63.0787453 L76.5475095,60.6911402 L76.5475095,60.6911402 C77.3411378,60.2427951 78.3115959,60.2427951 79.1052242,60.6911402 Z" id="Mask-Copy-17" opacity="0.300000012"></path>
                        <path d="M272.278857,23.6911402 L276.505224,26.0787453 L276.505224,26.0787453 C277.321559,26.5399184 277.826367,27.4048918 277.826367,28.3424866 L277.826367,33.0205637 L277.826367,33.0205637 C277.826367,33.9581585 277.321559,34.823132 276.505224,35.284305 L272.278857,37.6719101 L272.278857,37.6719101 C271.485229,38.1202553 270.514771,38.1202553 269.721143,37.6719101 L265.494776,35.284305 L265.494776,35.284305 C264.678441,34.823132 264.173633,33.9581585 264.173633,33.0205637 L264.173633,28.3424866 L264.173633,28.3424866 C264.173633,27.4048918 264.678441,26.5399184 265.494776,26.0787453 L269.721143,23.6911402 L269.721143,23.6911402 C270.514771,23.2427951 271.485229,23.2427951 272.278857,23.6911402 Z" id="Mask-Copy-29" opacity="0.300000012"></path>
                        <path d="M31.3728272,69.1133965 L34.4998447,70.9095059 L34.4998447,70.9095059 C35.1456605,71.2804523 35.5438596,71.9683829 35.5438596,72.7131508 L35.5438596,76.2868492 L35.5438596,76.2868492 C35.5438596,77.0316171 35.1456605,77.7195477 34.4998447,78.0904941 L31.3728272,79.8866035 L31.3728272,79.8866035 C30.7313167,80.255077 29.9423675,80.255077 29.300857,79.8866035 L26.1738395,78.0904941 L26.1738395,78.0904941 C25.5280237,77.7195477 25.1298246,77.0316171 25.1298246,76.2868492 L25.1298246,72.7131508 L25.1298246,72.7131508 C25.1298246,71.9683829 25.5280237,71.2804523 26.1738395,70.9095059 L29.300857,69.1133965 L29.300857,69.1133965 C29.9423675,68.744923 30.7313167,68.744923 31.3728272,69.1133965 Z" id="Mask-Copy-19" opacity="0.400000006"></path>
                        <path d="M235.019883,60.9141777 L236.479883,61.7568568 L236.479883,61.7568568 C236.801726,61.9426173 237,62.2859862 237,62.6575906 L237,64.3424094 L237,64.3424094 C237,64.7140138 236.801726,65.0573827 236.479883,65.2431432 L235.019883,66.0858223 L235.019883,66.0858223 C234.698165,66.2715105 234.301835,66.2715105 233.980117,66.0858223 L232.520117,65.2431432 L232.520117,65.2431432 C232.198274,65.0573827 232,64.7140138 232,64.3424094 L232,62.6575906 L232,62.6575906 C232,62.2859862 232.198274,61.9426173 232.520117,61.7568568 L233.980117,60.9141777 L233.980117,60.9141777 C234.301835,60.7284895 234.698165,60.7284895 235.019883,60.9141777 Z" id="Mask-Copy-28" opacity="0.400000006"></path>
                        <path d="M53.2278365,29.8798488 L55.2718365,31.0595995 L55.2718365,31.0595995 C55.7224166,31.3196642 56,31.8003807 56,32.3206268 L56,34.6793732 L56,34.6793732 C56,35.1996193 55.7224166,35.6803358 55.2718365,35.9404005 L53.2278365,37.1201512 L53.2278365,37.1201512 C52.7774316,37.3801147 52.2225684,37.3801147 51.7721635,37.1201512 L49.7281635,35.9404005 L49.7281635,35.9404005 C49.2775834,35.6803358 49,35.1996193 49,34.6793732 L49,32.3206268 L49,32.3206268 C49,31.8003807 49.2775834,31.3196642 49.7281635,31.0595995 L51.7721635,29.8798488 L51.7721635,29.8798488 C52.2225684,29.6198853 52.7774316,29.6198853 53.2278365,29.8798488 Z" id="Mask-Copy-30" opacity="0.400000006"></path>
                        <path d="M121.243003,88.7952147 L124.37002,90.5913241 L124.37002,90.5913241 C125.015836,90.9622704 125.414035,91.6502011 125.414035,92.394969 L125.414035,95.9686674 L125.414035,95.9686674 C125.414035,96.7134353 125.015836,97.4013659 124.37002,97.7723123 L121.243003,99.5684217 L121.243003,99.5684217 C120.601492,99.9368952 119.812543,99.9368952 119.171032,99.5684217 L116.044015,97.7723123 L116.044015,97.7723123 C115.398199,97.4013659 115,96.7134353 115,95.9686674 L115,92.394969 L115,92.394969 C115,91.6502011 115.398199,90.9622704 116.044015,90.5913241 L119.171032,88.7952147 L119.171032,88.7952147 C119.812543,88.4267412 120.601492,88.4267412 121.243003,88.7952147 Z" id="Mask-Copy-31" opacity="0.400000006"></path>
                        <path d="M314.243003,45.7952147 L317.37002,47.5913241 L317.37002,47.5913241 C318.015836,47.9622704 318.414035,48.6502011 318.414035,49.394969 L318.414035,52.9686674 L318.414035,52.9686674 C318.414035,53.7134353 318.015836,54.4013659 317.37002,54.7723123 L314.243003,56.5684217 L314.243003,56.5684217 C313.601492,56.9368952 312.812543,56.9368952 312.171032,56.5684217 L309.044015,54.7723123 L309.044015,54.7723123 C308.398199,54.4013659 308,53.7134353 308,52.9686674 L308,49.394969 L308,49.394969 C308,48.6502011 308.398199,47.9622704 309.044015,47.5913241 L312.171032,45.7952147 L312.171032,45.7952147 C312.812543,45.4267412 313.601492,45.4267412 314.243003,45.7952147 Z" id="Mask-Copy-34" opacity="0.300000012"></path>
                        <path d="M104.019883,41.9135917 L105.479883,42.7562708 L105.479883,42.7562708 C105.801726,42.9420312 106,43.2854002 106,43.6570046 L106,45.3418234 L106,45.3418234 C106,45.7134277 105.801726,46.0567967 105.479883,46.2425572 L104.019883,47.0852362 L104.019883,47.0852362 C103.698165,47.2709245 103.301835,47.2709245 102.980117,47.0852362 L101.520117,46.2425572 L101.520117,46.2425572 C101.198274,46.0567967 101,45.7134277 101,45.3418234 L101,43.6570046 L101,43.6570046 C101,43.2854002 101.198274,42.9420312 101.520117,42.7562708 L102.980117,41.9135917 L102.980117,41.9135917 C103.301835,41.7279035 103.698165,41.7279035 104.019883,41.9135917 Z" id="Mask-Copy-32" opacity="0.400000006"></path>
                        <path d="M332.019883,-0.0858222582 L333.479883,0.756856784 L333.479883,0.756856784 C333.801726,0.942617251 334,1.28598622 334,1.65759061 L334,3.34240939 L334,3.34240939 C334,3.71401378 333.801726,4.05738275 333.479883,4.24314322 L332.019883,5.08582226 L332.019883,5.08582226 C331.698165,5.27151049 331.301835,5.27151049 330.980117,5.08582226 L329.520117,4.24314322 L329.520117,4.24314322 C329.198274,4.05738275 329,3.71401378 329,3.34240939 L329,1.65759061 L329,1.65759061 C329,1.28598622 329.198274,0.942617251 329.520117,0.756856784 L330.980117,-0.0858222582 L330.980117,-0.0858222582 C331.301835,-0.271510488 331.698165,-0.271510488 332.019883,-0.0858222582 Z" id="Mask-Copy-33" opacity="0.400000006"></path>
                        <path d="M282.243003,67.7952147 L285.37002,69.5913241 L285.37002,69.5913241 C286.015836,69.9622704 286.414035,70.6502011 286.414035,71.394969 L286.414035,74.9686674 L286.414035,74.9686674 C286.414035,75.7134353 286.015836,76.4013659 285.37002,76.7723123 L282.243003,78.5684217 L282.243003,78.5684217 C281.601492,78.9368952 280.812543,78.9368952 280.171032,78.5684217 L277.044015,76.7723123 L277.044015,76.7723123 C276.398199,76.4013659 276,75.7134353 276,74.9686674 L276,71.394969 L276,71.394969 C276,70.6502011 276.398199,69.9622704 277.044015,69.5913241 L280.171032,67.7952147 L280.171032,67.7952147 C280.812543,67.4267412 281.601492,67.4267412 282.243003,67.7952147 Z" id="Mask-Copy-27" opacity="0.400000006"></path>
                        <path d="M327.060546,129.704306 L330.187564,131.500415 L330.187564,131.500415 C330.83338,131.871361 331.231579,132.559292 331.231579,133.30406 L331.231579,136.877758 L331.231579,136.877758 C331.231579,137.622526 330.83338,138.310457 330.187564,138.681403 L327.060546,140.477513 L327.060546,140.477513 C326.419036,140.845986 325.630087,140.845986 324.988576,140.477513 L321.861559,138.681403 L321.861559,138.681403 C321.215743,138.310457 320.817544,137.622526 320.817544,136.877758 L320.817544,133.30406 L320.817544,133.30406 C320.817544,132.559292 321.215743,131.871361 321.861559,131.500415 L324.988576,129.704306 L324.988576,129.704306 C325.630087,129.335832 326.419036,129.335832 327.060546,129.704306 Z" id="Mask-Copy-21" opacity="0.400000006"></path>
                        <path d="M354.243003,53.7952147 L357.37002,55.5913241 L357.37002,55.5913241 C358.015836,55.9622704 358.414035,56.6502011 358.414035,57.394969 L358.414035,60.9686674 L358.414035,60.9686674 C358.414035,61.7134353 358.015836,62.4013659 357.37002,62.7723123 L354.243003,64.5684217 L354.243003,64.5684217 C353.601492,64.9368952 352.812543,64.9368952 352.171032,64.5684217 L349.044015,62.7723123 L349.044015,62.7723123 C348.398199,62.4013659 348,61.7134353 348,60.9686674 L348,57.394969 L348,57.394969 C348,56.6502011 348.398199,55.9622704 349.044015,55.5913241 L352.171032,53.7952147 L352.171032,53.7952147 C352.812543,53.4267412 353.601492,53.4267412 354.243003,53.7952147 Z" id="Mask-Copy-23" opacity="0.400000006"></path>
                        <path d="M340.728968,141.663336 L341.903354,142.337885 L341.903354,142.337885 C342.549169,142.708831 342.947368,143.396762 342.947368,144.14153 L342.947368,145.472107 L342.947368,145.472107 C342.947368,146.216875 342.549169,146.904805 341.903354,147.275752 L340.728968,147.9503 L340.728968,147.9503 C340.087457,148.318774 339.298508,148.318774 338.656997,147.9503 L337.482611,147.275752 L337.482611,147.275752 C336.836796,146.904805 336.438596,146.216875 336.438596,145.472107 L336.438596,144.14153 L336.438596,144.14153 C336.438596,143.396762 336.836796,142.708831 337.482611,142.337885 L338.656997,141.663336 L338.656997,141.663336 C339.298508,141.294863 340.087457,141.294863 340.728968,141.663336 Z" id="Mask-Copy-22" opacity="0.400000006"></path>
                        <path d="M13.0443799,11.3341017 L22.2099023,16.5119884 L22.2099023,16.5119884 C23.0262377,16.9731615 23.5310451,17.8381349 23.5310451,18.7757297 L23.5310451,29.03437 L23.5310451,29.03437 C23.5310451,29.9719648 23.0262377,30.8369382 22.2099023,31.2981113 L13.0443799,36.475998 L13.0443799,36.475998 C12.2507516,36.9243431 11.2802935,36.9243431 10.4866652,36.475998 L1.32114278,31.2981113 L1.32114278,31.2981113 C0.50480744,30.8369382 2.66453526e-15,29.9719648 1.33226763e-15,29.03437 L-5.32907052e-15,18.7757297 L-4.88498131e-15,18.7757297 C-6.21724894e-15,17.8381349 0.50480744,16.9731615 1.32114278,16.5119884 L10.4866652,11.3341017 L10.4866652,11.3341017 C11.2802935,10.8857566 12.2507516,10.8857566 13.0443799,11.3341017 Z" id="Mask-Copy-18" opacity="0.300000012"></path>
                    </g>
                </g>
            </g>
        </g>
    </g>
</svg>