<?xml version="1.0" encoding="UTF-8"?>
<svg width="272px" height="143px" viewBox="0 0 272 143" version="1.1" xmlns="http://www.w3.org/2000/svg" xmlns:xlink="http://www.w3.org/1999/xlink">
    <!-- Generator: Sketch 45.2 (43514) - http://www.bohemiancoding.com/sketch -->
    <title>default-header</title>
    <desc>Created with Sketch.</desc>
    <defs>
        <path d="M31.3074218,32.7821323 L53.6527741,45.4671008 L53.6527741,45.4671008 C55.5305248,46.5330589 56.6907045,48.5257525 56.6907045,50.6849686 L56.6907045,75.8804417 L56.6907045,75.8804417 C56.6907045,78.0396578 55.5305248,80.0323514 53.6527741,81.0983094 L31.3074218,93.783278 L31.3074218,93.783278 C29.4703898,94.826121 27.2203148,94.826121 25.3832827,93.783278 L3.03793042,81.0983094 L3.03793042,81.0983094 C1.16017975,80.0323514 -6.21724894e-15,78.0396578 -3.55271368e-15,75.8804417 L-1.50990331e-14,50.6849686 L-1.24344979e-14,50.6849686 C-1.33226763e-14,48.5257525 1.16017975,46.5330589 3.03793042,45.4671008 L25.3832827,32.7821323 L25.3832827,32.7821323 C27.2203148,31.7392892 29.4703898,31.7392892 31.3074218,32.7821323 Z" id="path-1"></path>
        <path d="M53.0817869,1.52569902 L92.3056347,23.7922209 L92.3056347,23.7922209 C95.1560603,25.4103453 96.9172133,28.4352543 96.9172133,31.7129445 L96.9172133,75.9811519 L96.9172133,75.9811519 C96.9172133,79.2588421 95.1560603,82.2837511 92.3056347,83.9018755 L53.0817869,106.168397 L53.0817869,106.168397 C50.2931721,107.751433 46.8775582,107.751433 44.0889433,106.168397 L4.86509555,83.9018755 L4.86509555,83.9018755 C2.01466992,82.2837511 0.253516992,79.2588421 0.253516992,75.9811519 L0.253516992,31.7129445 L0.253516992,31.7129445 C0.253516992,28.4352543 2.01466992,25.4103453 4.86509555,23.7922209 L44.0889433,1.52569902 L44.0889433,1.52569902 C46.8775582,-0.0573367324 50.2931721,-0.0573367324 53.0817869,1.52569902 Z" id="path-3"></path>
    </defs>
    <g id="Widget-InfoView" stroke="none" stroke-width="1" fill="none" fill-rule="evenodd">
        <g id="experience" transform="translate(-262.000000, -59.000000)">
            <g id="default-header" transform="translate(262.000000, 59.000000)">
                <mask id="mask-2" fill="white">
                    <use xlink:href="#path-1"></use>
                </mask>
                <use id="Mask" fill="#D8D8D8" opacity="0.300000012" xlink:href="#path-1"></use>
                <path d="M65.8647068,0.782132256 L78.767344,8.10667766 L78.767344,8.10667766 C80.6450947,9.17263571 81.8052744,11.1653293 81.8052744,13.3245454 L81.8052744,27.7991722 L81.8052744,27.7991722 C81.8052744,29.9583883 80.6450947,31.9510819 78.767344,33.01704 L65.8647068,40.3415854 L65.8647068,40.3415854 C64.0276747,41.3844284 61.7775997,41.3844284 59.9405676,40.3415854 L47.0379304,33.01704 L47.0379304,33.01704 C45.1601797,31.9510819 44,29.9583883 44,27.7991722 L44,13.3245454 L44,13.3245454 C44,11.1653293 45.1601797,9.17263571 47.0379304,8.10667766 L59.9405676,0.782132256 L59.9405676,0.782132256 C61.7775997,-0.260710752 64.0276747,-0.260710752 65.8647068,0.782132256 Z" id="Mask-Copy-2" fill="#D8D8D8" opacity="0.300000012"></path>
                <path d="M229.273273,13.7821323 L248.584476,24.7446806 L248.584476,24.7446806 C250.462226,25.8106386 251.622406,27.8033322 251.622406,29.9625483 L251.622406,51.713181 L251.622406,51.713181 C251.622406,53.8723971 250.462226,55.8650906 248.584476,56.9310487 L229.273273,67.893597 L229.273273,67.893597 C227.436241,68.93644 225.186166,68.93644 223.349134,67.893597 L204.03793,56.9310487 L204.03793,56.9310487 C202.16018,55.8650906 201,53.8723971 201,51.713181 L201,29.9625483 L201,29.9625483 C201,27.8033322 202.16018,25.8106386 204.03793,24.7446806 L223.349134,13.7821323 L223.349134,13.7821323 C225.186166,12.7392892 227.436241,12.7392892 229.273273,13.7821323 Z" id="Mask-Copy-6" fill="#D8D8D8" opacity="0.300000012"></path>
                <path d="M223.566747,70.7821323 L234.171424,76.8021758 L234.171424,76.8021758 C236.049174,77.8681339 237.209354,79.8608275 237.209354,82.0200436 L237.209354,93.8856667 L237.209354,93.8856667 C237.209354,96.0448828 236.049174,98.0375764 234.171424,99.1035344 L223.566747,105.123578 L223.566747,105.123578 C221.729714,106.166421 219.47964,106.166421 217.642607,105.123578 L207.03793,99.1035344 L207.03793,99.1035344 C205.16018,98.0375764 204,96.0448828 204,93.8856667 L204,82.0200436 L204,82.0200436 C204,79.8608275 205.16018,77.8681339 207.03793,76.8021758 L217.642607,70.7821323 L217.642607,70.7821323 C219.47964,69.7392892 221.729714,69.7392892 223.566747,70.7821323 Z" id="Mask-Copy-14" fill="#D8D8D8" opacity="0.300000012"></path>
                <path d="M258.418047,62.7821323 L264.874024,66.4470494 L264.874024,66.4470494 C266.751774,67.5130075 267.911954,69.5057011 267.911954,71.6649172 L267.911954,78.8202876 L267.911954,78.8202876 C267.911954,80.9795037 266.751774,82.9721972 264.874024,84.0381553 L258.418047,87.7030725 L258.418047,87.7030725 C256.581015,88.7459155 254.33094,88.7459155 252.493907,87.7030725 L246.03793,84.0381553 L246.03793,84.0381553 C244.16018,82.9721972 243,80.9795037 243,78.8202876 L243,71.6649172 L243,71.6649172 C243,69.5057011 244.16018,67.5130075 246.03793,66.4470494 L252.493907,62.7821323 L252.493907,62.7821323 C254.33094,61.7392892 256.581015,61.7392892 258.418047,62.7821323 Z" id="Mask-Copy-15" fill="#D8D8D8" opacity="0.300000012"></path>
                <path d="M57.4180466,87.7821323 L63.8740236,91.4470494 L63.8740236,91.4470494 C65.7517743,92.5130075 66.911954,94.5057011 66.911954,96.6649172 L66.911954,103.820288 L66.911954,103.820288 C66.911954,105.979504 65.7517743,107.972197 63.8740236,109.038155 L57.4180466,112.703072 L57.4180466,112.703072 C55.5810145,113.745915 53.3309395,113.745915 51.4939074,112.703072 L45.0379304,109.038155 L45.0379304,109.038155 C43.1601797,107.972197 42,105.979504 42,103.820288 L42,96.6649172 L42,96.6649172 C42,94.5057011 43.1601797,92.5130075 45.0379304,91.4470494 L51.4939074,87.7821323 L51.4939074,87.7821323 C53.3309395,86.7392892 55.5810145,86.7392892 57.4180466,87.7821323 Z" id="Mask-Copy-16" fill="#D8D8D8" opacity="0.300000012"></path>
                <path d="M195.139989,23.584498 L195.317907,23.6854987 L195.317907,23.6854987 C197.195658,24.7514568 198.355838,26.7441504 198.355838,28.9033665 L198.355838,28.9309038 L198.355838,28.9309038 C198.355838,31.0901199 197.195658,33.0828135 195.317907,34.1487716 L195.139989,34.2497723 L195.139989,34.2497723 C193.302956,35.2926153 191.052881,35.2926153 189.215849,34.2497723 L189.03793,34.1487716 L189.03793,34.1487716 C187.16018,33.0828135 186,31.0901199 186,28.9309038 L186,28.9033665 L186,28.9033665 C186,26.7441504 187.16018,24.7514568 189.03793,23.6854987 L189.215849,23.584498 L189.215849,23.584498 C191.052881,22.541655 193.302956,22.541655 195.139989,23.584498 Z" id="Mask-Copy-20" fill="#D8D8D8" opacity="0.300000012"></path>
                <path d="M32.655336,96.1818654 L35.8993106,98.0233989 L35.8993106,98.0233989 C36.5252275,98.3787183 36.911954,99.0429495 36.911954,99.7626882 L36.911954,103.387601 L36.911954,103.387601 C36.911954,104.107339 36.5252275,104.77157 35.8993106,105.12689 L32.655336,106.968423 L32.655336,106.968423 C32.042992,107.316038 31.292967,107.316038 30.680623,106.968423 L27.4366484,105.12689 L27.4366484,105.12689 C26.8107315,104.77157 26.4240049,104.107339 26.4240049,103.387601 L26.4240049,99.7626882 L26.4240049,99.7626882 C26.4240049,99.0429495 26.8107315,98.3787183 27.4366484,98.0233989 L30.680623,96.1818654 L30.680623,96.1818654 C31.292967,95.8342511 32.042992,95.8342511 32.655336,96.1818654 Z" id="Mask-Copy-17" fill="#D8D8D8" opacity="0.300000012"></path>
                <path d="M38.7998203,2.84421883 L41.1998204,4.2294447 L41.1998204,4.2294447 C41.6949633,4.51523002 42,5.04348995 42,5.61518897 L42,8.38481103 L42,8.38481103 C42,8.95651005 41.6949633,9.48476998 41.1998204,9.7705553 L38.7998203,11.1557812 L38.7998203,11.1557812 C38.3048699,11.4414554 37.6951301,11.4414554 37.2001797,11.1557812 L34.8001796,9.7705553 L34.8001796,9.7705553 C34.3050367,9.48476998 34,8.95651005 34,8.38481103 L34,5.61518897 L34,5.61518897 C34,5.04348995 34.3050367,4.51523002 34.8001796,4.2294447 L37.2001797,2.84421883 L37.2001797,2.84421883 C37.6951301,2.55854465 38.3048699,2.55854465 38.7998203,2.84421883 Z" id="Mask-Copy-19" fill="#D8D8D8" opacity="0.300000012"></path>
                <path d="M259.79982,48.8442188 L262.19982,50.2294447 L262.19982,50.2294447 C262.694963,50.51523 263,51.04349 263,51.615189 L263,54.384811 L263,54.384811 C263,54.95651 262.694963,55.48477 262.19982,55.7705553 L259.79982,57.1557812 L259.79982,57.1557812 C259.30487,57.4414554 258.69513,57.4414554 258.20018,57.1557812 L255.80018,55.7705553 L255.80018,55.7705553 C255.305037,55.48477 255,54.95651 255,54.384811 L255,51.615189 L255,51.615189 C255,51.04349 255.305037,50.51523 255.80018,50.2294447 L258.20018,48.8442188 L258.20018,48.8442188 C258.69513,48.5585446 259.30487,48.5585446 259.79982,48.8442188 Z" id="Mask-Copy-21" fill="#D8D8D8" opacity="0.300000012"></path>
                <path d="M209.79982,114.844219 L212.19982,116.229445 L212.19982,116.229445 C212.694963,116.51523 213,117.04349 213,117.615189 L213,120.384811 L213,120.384811 C213,120.95651 212.694963,121.48477 212.19982,121.770555 L209.79982,123.155781 L209.79982,123.155781 C209.30487,123.441455 208.69513,123.441455 208.20018,123.155781 L205.80018,121.770555 L205.80018,121.770555 C205.305037,121.48477 205,120.95651 205,120.384811 L205,117.615189 L205,117.615189 C205,117.04349 205.305037,116.51523 205.80018,116.229445 L208.20018,114.844219 L208.20018,114.844219 C208.69513,114.558545 209.30487,114.558545 209.79982,114.844219 Z" id="Mask-Copy-23" fill="#D8D8D8" opacity="0.300000012"></path>
                <path d="M270.29982,58.0757511 L271.19982,58.5952108 L271.19982,58.5952108 C271.694963,58.8809962 272,59.4092561 272,59.9809551 L272,61.0190449 L272,61.0190449 C272,61.5907439 271.694963,62.1190038 271.19982,62.4047892 L270.29982,62.9242489 L270.29982,62.9242489 C269.80487,63.2099231 269.19513,63.2099231 268.70018,62.9242489 L267.80018,62.4047892 L267.80018,62.4047892 C267.305037,62.1190038 267,61.5907439 267,61.0190449 L267,59.9809551 L267,59.9809551 C267,59.4092561 267.305037,58.8809962 267.80018,58.5952108 L268.70018,58.0757511 L268.70018,58.0757511 C269.19513,57.7900769 269.80487,57.7900769 270.29982,58.0757511 Z" id="Mask-Copy-22" fill="#D8D8D8" opacity="0.300000012"></path>
                <path d="M27.8611059,10.1422781 L34.8993106,14.1377132 L34.8993106,14.1377132 C35.5252275,14.4930325 35.911954,15.1572637 35.911954,15.8770024 L35.911954,23.8097179 L35.911954,23.8097179 C35.911954,24.5294566 35.5252275,25.1936878 34.8993106,25.5490072 L27.8611059,29.5444423 L27.8611059,29.5444423 C27.2487619,29.8920566 26.4987369,29.8920566 25.8863928,29.5444423 L18.8481882,25.5490072 L18.8481882,25.5490072 C18.2222713,25.1936878 17.8355447,24.5294566 17.8355447,23.8097179 L17.8355447,15.8770024 L17.8355447,15.8770024 C17.8355447,15.1572637 18.2222713,14.4930325 18.8481882,14.1377132 L25.8863928,10.1422781 L25.8863928,10.1422781 C26.4987369,9.79466372 27.2487619,9.79466372 27.8611059,10.1422781 Z" id="Mask-Copy-18" fill="#D8D8D8" opacity="0.300000012"></path>
                <g id="Group-Copy" transform="translate(83.000000, 21.000000)">
                    <path d="M57.8243713,-1.09100316 L99.4740696,22.9785933 C103.382215,25.2371326 105.789325,29.4083751 105.789325,33.9221983 L105.789325,82.0778017 C105.789325,86.5916249 103.382215,90.7628674 99.4740696,93.0214067 L57.8243713,117.091003 C53.9113412,119.352365 49.0886588,119.352365 45.1756287,117.091003 L3.52593039,93.0214067 C-0.382214939,90.7628674 -2.78932499,86.5916249 -2.78932499,82.0778017 L-2.78932499,33.9221983 C-2.78932499,29.4083751 -0.382214939,25.2371326 3.52593039,22.9785933 L45.1756287,-1.09100316 C49.0886588,-3.3523654 53.9113412,-3.3523654 57.8243713,-1.09100316 Z" id="Mask" stroke="#EEEEEE" stroke-width="5.57864997"></path>
                    <g id="Group-19" transform="translate(3.000000, 4.000000)">
                        <mask id="mask-4" fill="white">
                            <use xlink:href="#path-3"></use>
                        </mask>
                        <use id="Mask" fill="#F3F3F3" xlink:href="#path-3"></use>
                    </g>
                </g>
            </g>
        </g>
    </g>
</svg>