<?xml version="1.0" encoding="UTF-8"?>
<svg width="375px" height="165px" viewBox="0 0 375 165" version="1.1" xmlns="http://www.w3.org/2000/svg" xmlns:xlink="http://www.w3.org/1999/xlink">
    <!-- Generator: Sketch 45.2 (43514) - http://www.bohemiancoding.com/sketch -->
    <title>header</title>
    <desc>Created with Sketch.</desc>
    <defs>
        <path d="M84.3074218,43.7821323 L106.652774,56.4671008 L106.652774,56.4671008 C108.530525,57.5330589 109.690705,59.5257525 109.690705,61.6849686 L109.690705,86.8804417 L109.690705,86.8804417 C109.690705,89.0396578 108.530525,91.0323514 106.652774,92.0983094 L84.3074218,104.783278 L84.3074218,104.783278 C82.4703898,105.826121 80.2203148,105.826121 78.3832827,104.783278 L56.0379304,92.0983094 L56.0379304,92.0983094 C54.1601797,91.0323514 53,89.0396578 53,86.8804417 L53,61.6849686 L53,61.6849686 C53,59.5257525 54.1601797,57.5330589 56.0379304,56.4671008 L78.3832827,43.7821323 L78.3832827,43.7821323 C80.2203148,42.7392892 82.4703898,42.7392892 84.3074218,43.7821323 Z" id="path-1"></path>
    </defs>
    <g id="Widget-InfoView" stroke="none" stroke-width="1" fill="none" fill-rule="evenodd">
        <g id="header">
            <path d="M2,0 L373,0 C374.104569,-2.02906125e-16 375,0.8954305 375,2 L375,163 C375,164.104569 374.104569,165 373,165 L2,165 C0.8954305,165 1.3527075e-16,164.104569 0,163 L0,2 L0,2 C-1.3527075e-16,0.8954305 0.8954305,2.02906125e-16 2,0 L2,0 Z M192.946232,27.1443834 L192.946232,27.1443834 C189.576092,25.1986322 185.423908,25.1986322 182.053768,27.1443834 L182.053768,27.1443834 L136.221568,53.6056166 C132.851428,55.5513678 130.775336,59.1472644 130.775336,63.0387669 L130.775336,115.961233 C130.775336,119.852736 132.851428,123.448632 136.221568,125.394383 L136.221568,125.394383 L182.053768,151.855617 C185.423908,153.801368 189.576092,153.801368 192.946232,151.855617 L192.946232,151.855617 L238.778432,125.394383 C242.148572,123.448632 244.224664,119.852736 244.224664,115.961233 L244.224664,63.0387669 C244.224664,59.1472644 242.148572,55.5513678 238.778432,53.6056166 L238.778432,53.6056166 L192.946232,27.1443834 Z" id="Combined-Shape" fill="#FFFFFF"></path>
            <mask id="mask-2" fill="white">
                <use xlink:href="#path-1"></use>
            </mask>
            <use id="hex" fill="#D8D8D8" opacity="0.300000012" xlink:href="#path-1"></use>
            <path d="M118.864707,10.7821323 L131.767344,18.1066777 L131.767344,18.1066777 C133.645095,19.1726357 134.805274,21.1653293 134.805274,23.3245454 L134.805274,37.7991722 L134.805274,37.7991722 C134.805274,39.9583883 133.645095,41.9510819 131.767344,43.01704 L118.864707,50.3415854 L118.864707,50.3415854 C117.027675,51.3844284 114.7776,51.3844284 112.940568,50.3415854 L100.03793,43.01704 L100.03793,43.01704 C98.1601797,41.9510819 97,39.9583883 97,37.7991722 L97,23.3245454 L97,23.3245454 C97,21.1653293 98.1601797,19.1726357 100.03793,18.1066777 L112.940568,10.7821323 L112.940568,10.7821323 C114.7776,9.73928925 117.027675,9.73928925 118.864707,10.7821323 Z" id="hex1" fill="#D8D8D8" opacity="0.300000012"></path>
            <path d="M282.273273,24.7821323 L301.584476,35.7446806 L301.584476,35.7446806 C303.462226,36.8106386 304.622406,38.8033322 304.622406,40.9625483 L304.622406,62.713181 L304.622406,62.713181 C304.622406,64.8723971 303.462226,66.8650906 301.584476,67.9310487 L282.273273,78.893597 L282.273273,78.893597 C280.436241,79.93644 278.186166,79.93644 276.349134,78.893597 L257.03793,67.9310487 L257.03793,67.9310487 C255.16018,66.8650906 254,64.8723971 254,62.713181 L254,40.9625483 L254,40.9625483 C254,38.8033322 255.16018,36.8106386 257.03793,35.7446806 L276.349134,24.7821323 L276.349134,24.7821323 C278.186166,23.7392892 280.436241,23.7392892 282.273273,24.7821323 Z" id="hex2" fill="#D8D8D8" opacity="0.300000012"></path>
            <path d="M276.566747,81.7821323 L287.171424,87.8021758 L287.171424,87.8021758 C289.049174,88.8681339 290.209354,90.8608275 290.209354,93.0200436 L290.209354,104.885667 L290.209354,104.885667 C290.209354,107.044883 289.049174,109.037576 287.171424,110.103534 L276.566747,116.123578 L276.566747,116.123578 C274.729714,117.166421 272.47964,117.166421 270.642607,116.123578 L260.03793,110.103534 L260.03793,110.103534 C258.16018,109.037576 257,107.044883 257,104.885667 L257,93.0200436 L257,93.0200436 C257,90.8608275 258.16018,88.8681339 260.03793,87.8021758 L270.642607,81.7821323 L270.642607,81.7821323 C272.47964,80.7392892 274.729714,80.7392892 276.566747,81.7821323 Z" id="hex3" fill="#D8D8D8" opacity="0.300000012"></path>
            <path d="M311.418047,73.7821323 L317.874024,77.4470494 L317.874024,77.4470494 C319.751774,78.5130075 320.911954,80.5057011 320.911954,82.6649172 L320.911954,89.8202876 L320.911954,89.8202876 C320.911954,91.9795037 319.751774,93.9721972 317.874024,95.0381553 L311.418047,98.7030725 L311.418047,98.7030725 C309.581015,99.7459155 307.33094,99.7459155 305.493907,98.7030725 L299.03793,95.0381553 L299.03793,95.0381553 C297.16018,93.9721972 296,91.9795037 296,89.8202876 L296,82.6649172 L296,82.6649172 C296,80.5057011 297.16018,78.5130075 299.03793,77.4470494 L305.493907,73.7821323 L305.493907,73.7821323 C307.33094,72.7392892 309.581015,72.7392892 311.418047,73.7821323 Z" id="hex4" fill="#D8D8D8" opacity="0.300000012"></path>
            <path d="M110.418047,98.7821323 L116.874024,102.447049 L116.874024,102.447049 C118.751774,103.513007 119.911954,105.505701 119.911954,107.664917 L119.911954,114.820288 L119.911954,114.820288 C119.911954,116.979504 118.751774,118.972197 116.874024,120.038155 L110.418047,123.703072 L110.418047,123.703072 C108.581015,124.745915 106.33094,124.745915 104.493907,123.703072 L98.0379304,120.038155 L98.0379304,120.038155 C96.1601797,118.972197 95,116.979504 95,114.820288 L95,107.664917 L95,107.664917 C95,105.505701 96.1601797,103.513007 98.0379304,102.447049 L104.493907,98.7821323 L104.493907,98.7821323 C106.33094,97.7392892 108.581015,97.7392892 110.418047,98.7821323 Z" id="hex5" fill="#D8D8D8" opacity="0.300000012"></path>
            <path d="M248.139989,34.7821323 L248.317907,34.8831329 L248.317907,34.8831329 C250.195658,35.949091 251.355838,37.9417846 251.355838,40.1010007 L251.355838,40.1285381 L251.355838,40.1285381 C251.355838,42.2877542 250.195658,44.2804478 248.317907,45.3464058 L248.139989,45.4474065 L248.139989,45.4474065 C246.302956,46.4902495 244.052881,46.4902495 242.215849,45.4474065 L242.03793,45.3464058 L242.03793,45.3464058 C240.16018,44.2804478 239,42.2877542 239,40.1285381 L239,40.1010007 L239,40.1010007 C239,37.9417846 240.16018,35.949091 242.03793,34.8831329 L242.215849,34.7821323 L242.215849,34.7821323 C244.052881,33.7392892 246.302956,33.7392892 248.139989,34.7821323 Z" id="hex6" fill="#D8D8D8" opacity="0.300000012"></path>
            <path d="M85.2313311,107.76439 L88.4753056,109.605923 L88.4753056,109.605923 C89.1012225,109.961242 89.4879491,110.625474 89.4879491,111.345212 L89.4879491,114.970125 L89.4879491,114.970125 C89.4879491,115.689863 89.1012225,116.354095 88.4753056,116.709414 L85.2313311,118.550948 L85.2313311,118.550948 C84.6189871,118.898562 83.8689621,118.898562 83.256618,118.550948 L80.0126435,116.709414 L80.0126435,116.709414 C79.3867266,116.354095 79,115.689863 79,114.970125 L79,111.345212 L79,111.345212 C79,110.625474 79.3867266,109.961242 80.0126435,109.605923 L83.256618,107.76439 L83.256618,107.76439 C83.8689621,107.416775 84.6189871,107.416775 85.2313311,107.76439 Z" id="hex7" fill="#D8D8D8" opacity="0.300000012"></path>
            <path d="M91.7998203,13.8442188 L94.1998204,15.2294447 L94.1998204,15.2294447 C94.6949633,15.51523 95,16.04349 95,16.615189 L95,19.384811 L95,19.384811 C95,19.95651 94.6949633,20.48477 94.1998204,20.7705553 L91.7998203,22.1557812 L91.7998203,22.1557812 C91.3048699,22.4414554 90.6951301,22.4414554 90.2001797,22.1557812 L87.8001796,20.7705553 L87.8001796,20.7705553 C87.3050367,20.48477 87,19.95651 87,19.384811 L87,16.615189 L87,16.615189 C87,16.04349 87.3050367,15.51523 87.8001796,15.2294447 L90.2001797,13.8442188 L90.2001797,13.8442188 C90.6951301,13.5585446 91.3048699,13.5585446 91.7998203,13.8442188 Z" id="hex8" fill="#D8D8D8" opacity="0.300000012"></path>
            <path d="M312.79982,59.8442188 L315.19982,61.2294447 L315.19982,61.2294447 C315.694963,61.51523 316,62.04349 316,62.615189 L316,65.384811 L316,65.384811 C316,65.95651 315.694963,66.48477 315.19982,66.7705553 L312.79982,68.1557812 L312.79982,68.1557812 C312.30487,68.4414554 311.69513,68.4414554 311.20018,68.1557812 L308.80018,66.7705553 L308.80018,66.7705553 C308.305037,66.48477 308,65.95651 308,65.384811 L308,62.615189 L308,62.615189 C308,62.04349 308.305037,61.51523 308.80018,61.2294447 L311.20018,59.8442188 L311.20018,59.8442188 C311.69513,59.5585446 312.30487,59.5585446 312.79982,59.8442188 Z" id="hex9" fill="#D8D8D8" opacity="0.300000012"></path>
            <path d="M262.79982,125.844219 L265.19982,127.229445 L265.19982,127.229445 C265.694963,127.51523 266,128.04349 266,128.615189 L266,131.384811 L266,131.384811 C266,131.95651 265.694963,132.48477 265.19982,132.770555 L262.79982,134.155781 L262.79982,134.155781 C262.30487,134.441455 261.69513,134.441455 261.20018,134.155781 L258.80018,132.770555 L258.80018,132.770555 C258.305037,132.48477 258,131.95651 258,131.384811 L258,128.615189 L258,128.615189 C258,128.04349 258.305037,127.51523 258.80018,127.229445 L261.20018,125.844219 L261.20018,125.844219 C261.69513,125.558545 262.30487,125.558545 262.79982,125.844219 Z" id="hex10" fill="#D8D8D8" opacity="0.300000012"></path>
            <path d="M323.29982,69.0757511 L324.19982,69.5952108 L324.19982,69.5952108 C324.694963,69.8809962 325,70.4092561 325,70.9809551 L325,72.0190449 L325,72.0190449 C325,72.5907439 324.694963,73.1190038 324.19982,73.4047892 L323.29982,73.9242489 L323.29982,73.9242489 C322.80487,74.2099231 322.19513,74.2099231 321.70018,73.9242489 L320.80018,73.4047892 L320.80018,73.4047892 C320.305037,73.1190038 320,72.5907439 320,72.0190449 L320,70.9809551 L320,70.9809551 C320,70.4092561 320.305037,69.8809962 320.80018,69.5952108 L321.70018,69.0757511 L321.70018,69.0757511 C322.19513,68.7900769 322.80487,68.7900769 323.29982,69.0757511 Z" id="hex11" fill="#D8D8D8" opacity="0.300000012"></path>
            <path d="M81.0255612,21.2607108 L88.0637658,25.2561459 L88.0637658,25.2561459 C88.6896827,25.6114652 89.0764093,26.2756964 89.0764093,26.9954351 L89.0764093,34.9281506 L89.0764093,34.9281506 C89.0764093,35.6478893 88.6896827,36.3121205 88.0637658,36.6674399 L81.0255612,40.662875 L81.0255612,40.662875 C80.4132172,41.0104893 79.6631922,41.0104893 79.0508481,40.662875 L72.0126435,36.6674399 L72.0126435,36.6674399 C71.3867266,36.3121205 71,35.6478893 71,34.9281506 L71,26.9954351 L71,26.9954351 C71,26.2756964 71.3867266,25.6114652 72.0126435,25.2561459 L79.0508481,21.2607108 L79.0508481,21.2607108 C79.6631922,20.9130964 80.4132172,20.9130964 81.0255612,21.2607108 Z" id="hex12" fill="#D8D8D8" opacity="0.300000012"></path>
            <path d="M193.126165,25.5182269 L240.157746,52.7461073 L240.157746,52.7461073 C243.625639,54.7537663 245.760925,58.4572442 245.760925,62.4643599 L245.760925,116.97324 L245.760925,116.97324 C245.760925,120.980356 243.625639,124.683833 240.157746,126.691492 L193.126165,153.919373 C189.645957,155.934161 185.354043,155.934161 181.873835,153.919373 L134.842254,126.691492 L134.842254,126.691492 C131.374361,124.683833 129.239075,120.980356 129.239075,116.97324 L129.239075,62.4643599 L129.239075,62.4643599 C129.239075,58.4572442 131.374361,54.7537663 134.842254,52.7461073 L181.873835,25.5182269 L181.873835,25.5182269 C185.354043,23.5034386 189.645957,23.5034386 193.126165,25.5182269 L193.126165,25.5182269 Z M192.428703,33.2861029 L192.428703,33.2861029 C189.379204,31.5237803 185.620796,31.5237803 182.571297,33.2861029 L182.571297,33.2861029 L141.132066,57.234069 C138.086374,58.9941916 136.210468,62.2449203 136.210468,65.7626287 L136.210468,65.7626287 L136.210468,113.674971 C136.210468,117.192679 138.086374,120.443408 141.132066,122.203531 L141.132066,122.203531 L182.571297,146.151497 C185.620796,147.913819 189.379204,147.913819 192.428703,146.151497 L192.428703,146.151497 L233.867934,122.203531 C236.913626,120.443408 238.789532,117.192679 238.789532,113.674971 L238.789532,113.674971 L238.789532,65.7626287 C238.789532,62.2449203 236.913626,58.9941916 233.867934,57.234069 L233.867934,57.234069 L192.428703,33.2861029 Z" id="Combined-Shape" fill="#2D2D37"></path>
            <path d="M192.427844,32.3093688 L235.000124,56.6515589 L235.000124,56.6515589 C238.09205,58.4194764 240,61.7082337 240,65.2699108 L240,113.788339 L240,113.788339 C240,117.350016 238.09205,120.638774 235.000124,122.406691 L192.427844,146.748881 C189.374555,148.494706 185.625445,148.494706 182.572156,146.748881 L139.999876,122.406691 C136.90795,120.638774 135,117.350016 135,113.788339 L135,65.2699108 L135,65.2699108 C135,61.7082337 136.90795,58.4194764 139.999876,56.6515589 L182.572156,32.3093688 L182.572156,32.3093688 C185.625445,30.5635437 189.374555,30.5635437 192.427844,32.3093688 L192.427844,32.3093688 Z M192.030907,37.1986147 L192.030907,37.1986147 C189.223266,35.594521 185.776734,35.594521 182.969093,37.1986147 L182.969093,37.1986147 L143.602597,59.6899362 C140.756499,61.3160015 139,64.3425102 139,67.6203692 L139,67.6203692 L139,112.437881 C139,115.71574 140.756499,118.742249 143.602597,120.368314 L182.969093,142.859635 C185.776734,144.463729 189.223266,144.463729 192.030907,142.859635 L231.397403,120.368314 C234.243501,118.742249 236,115.71574 236,112.437881 L236,112.437881 L236,67.6203692 C236,64.3425102 234.243501,61.3160015 231.397403,59.6899362 L231.397403,59.6899362 L192.030907,37.1986147 Z" id="Combined-Shape" fill="#FFFFFF"></path>
        </g>
    </g>
</svg>