<?xml version="1.0" encoding="UTF-8"?>
<svg width="97px" height="108px" viewBox="0 0 97 108" version="1.1" xmlns="http://www.w3.org/2000/svg" xmlns:xlink="http://www.w3.org/1999/xlink">
    <!-- Generator: Sketch 45.2 (43514) - http://www.bohemiancoding.com/sketch -->
    <title>mask</title>
    <desc>Created with Sketch.</desc>
    <defs>
        <path d="M53.0817869,1.52569902 L92.3056347,23.7922209 L92.3056347,23.7922209 C95.1560603,25.4103453 96.9172133,28.4352543 96.9172133,31.7129445 L96.9172133,75.9811519 L96.9172133,75.9811519 C96.9172133,79.2588421 95.1560603,82.2837511 92.3056347,83.9018755 L53.0817869,106.168397 L53.0817869,106.168397 C50.2931721,107.751433 46.8775582,107.751433 44.0889433,106.168397 L4.86509555,83.9018755 L4.86509555,83.9018755 C2.01466992,82.2837511 0.253516992,79.2588421 0.253516992,75.9811519 L0.253516992,31.7129445 L0.253516992,31.7129445 C0.253516992,28.4352543 2.01466992,25.4103453 4.86509555,23.7922209 L44.0889433,1.52569902 L44.0889433,1.52569902 C46.8775582,-0.0573367324 50.2931721,-0.0573367324 53.0817869,1.52569902 Z" id="path-1"></path>
    </defs>
    <g id="Widget-InfoView" stroke="none" stroke-width="1" fill="none" fill-rule="evenodd">
        <g id="Template-Info-View-Copy-10" transform="translate(-138.000000, -124.000000)">
            <g id="header_bg" transform="translate(52.000000, 98.000000)">
                <g id="icon-mask" transform="translate(86.000000, 26.000000)">
                    <mask id="mask-2" fill="white">
                        <use xlink:href="#path-1"></use>
                    </mask>
                    <use id="mask" fill="#D8D8D8" xlink:href="#path-1"></use>
                </g>
            </g>
        </g>
    </g>
</svg>